<svg width="84" height="80" viewBox="0 0 84 80" fill="none" xmlns="http://www.w3.org/2000/svg">
<g clip-path="url(#clip0)">
<path d="M56.5259 80.0001C56.5135 79.783 56.499 79.5659 56.4866 79.3487C56.4099 78.0646 56.3374 76.8529 56.2815 75.6142C56.2649 75.2379 56.2172 74.8554 56.1696 74.4831C56.0908 73.8587 55.9831 73.0026 56.1654 72.7193C56.3457 72.4422 57.1351 72.1879 57.7132 72.0018C57.7235 71.9976 57.7339 71.9956 57.7442 71.9914L58.1379 78.3893H74.446L74.5041 77.4153C74.5393 76.8136 74.5745 76.2222 74.6118 75.6391C74.6885 74.3736 74.761 73.1763 74.8252 71.9583C74.8874 70.7507 74.9516 69.5452 75.0137 68.3376C75.2603 63.6457 75.5131 58.7946 75.7099 54.0179C75.741 53.2652 75.8819 53.1391 76.4247 52.9592C77.9787 52.4443 79.487 51.7888 80.9477 51.156L81.012 51.1291C81.532 50.9037 82.2634 50.2255 82.2614 49.4232C82.2572 48.2363 82.2717 47.0245 82.2841 45.8541C82.3173 42.6697 82.3525 39.3777 82.0707 36.1415C81.4201 28.685 74.9039 22.5766 67.2378 22.2396C66.9809 22.2292 66.7198 22.223 66.4629 22.223C58.6828 22.223 52.1977 27.376 50.6935 34.754C50.3827 36.2801 50.3184 37.8289 50.2977 39.142C50.2687 40.9968 50.2708 42.8806 50.2749 44.7003C50.277 46.1291 50.2811 47.6056 50.2666 49.0551C50.2604 49.7644 50.4055 50.7611 51.7439 51.2491C52.4297 51.4993 53.128 51.7867 53.8034 52.0638C54.6674 52.4195 55.5604 52.7855 56.4721 53.0956C56.7953 53.2052 56.8139 53.2114 56.8305 53.6498C56.903 55.5915 57.0108 57.5601 57.1144 59.4645C57.1454 60.0394 57.1765 60.6142 57.2076 61.1891C57.218 61.3814 57.2553 61.5427 57.2925 61.7019C57.3071 61.764 57.3236 61.8363 57.3402 61.919L57.6862 63.6457L59.0288 62.5022C60.9744 60.8458 62.4662 58.776 63.5912 56.1746C65.0623 52.7731 65.6383 48.9021 65.4042 43.991C65.3503 42.862 63.9289 42.2458 63.8689 42.2209C62.0311 41.4414 60.6594 39.9298 60.1062 38.0708C59.5675 36.2594 59.8721 34.3095 60.9412 32.7214C62.1429 30.9368 64.1444 29.8698 66.2951 29.8698C66.8586 29.8698 67.4222 29.9443 67.9713 30.089C70.6461 30.8004 72.5109 33.1267 72.7222 36.0133C72.9066 38.5299 71.2491 41.1457 68.8663 42.0989C67.588 42.6097 67.0617 43.4265 67.1114 44.8264C67.2647 49.1523 66.7716 52.6324 65.5595 55.7735C62.7769 62.984 57.3133 67.2582 49.3177 68.4782C47.5483 68.747 45.7768 68.8855 44.0488 68.8855C40.5659 68.8855 37.1451 68.3314 33.886 67.2354C26.9305 64.9008 22.7079 59.9608 21.3363 52.558C20.9675 50.5646 20.8494 48.4554 20.7355 46.4145C20.7002 45.7673 20.6629 45.12 20.6194 44.4749C20.5386 43.2693 19.9502 42.6428 18.7692 42.5063C13.7116 41.9232 9.00835 39.479 5.52751 35.6287C2.0446 31.7743 0.0928418 26.8529 0.030684 21.766C-0.0128265 18.0439 -0.000394924 14.2516 0.00996471 10.5853C0.0141086 9.33014 0.0182524 8.0729 0.0203244 6.81773C0.0223963 5.83138 0.256524 5.60185 1.28213 5.59358C1.49139 5.59151 1.70273 5.59151 1.91199 5.59151C2.26837 5.59151 2.62474 5.59358 2.98111 5.59565C3.34162 5.59771 3.70007 5.59978 4.06058 5.59978C4.908 5.59978 5.55652 5.58944 6.16773 5.56876C6.87426 5.54395 7.62844 5.21723 8.08841 4.7375C8.70999 4.09234 9.47867 3.73874 10.2556 3.73874C10.9228 3.73874 11.5485 3.99929 12.0644 4.4935C12.5928 5.00011 12.8849 5.68663 12.887 6.43105C12.8891 7.17133 12.6031 7.85991 12.081 8.36653C11.5755 8.8566 10.9497 9.11508 10.2702 9.11508C9.46003 9.11508 8.67269 8.74701 8.05526 8.0791C7.57664 7.56008 7.10425 7.29953 6.61113 7.27886C6.08071 7.25818 5.51715 7.24991 4.78369 7.24991C4.46047 7.24991 4.13517 7.25197 3.80574 7.25404C3.47216 7.25611 3.13443 7.25818 2.79049 7.25818H1.83533L1.75867 8.20938C1.74831 8.32517 1.73795 8.43477 1.72759 8.53609C1.70273 8.77596 1.67994 9.00342 1.67994 9.25156C1.67994 10.2917 1.67787 11.3339 1.67372 12.376C1.66751 15.3103 1.66129 18.3459 1.68201 21.3318C1.76074 32.3905 10.496 41.0526 21.5684 41.0526C21.7051 41.0526 21.8419 41.0506 21.9807 41.0485C32.1704 40.85 40.7503 32.4588 41.1066 22.3388C41.2185 19.1895 41.1916 15.9968 41.1667 12.9075C41.1564 11.5551 41.1439 10.1593 41.1439 8.7863C41.1439 8.59606 41.1108 8.43684 41.0818 8.29622C41.0714 8.24453 41.059 8.18663 41.0466 8.11632L40.8974 7.26024H40.0251C39.6936 7.26024 39.3642 7.25818 39.0347 7.25611C38.7032 7.25404 38.3738 7.25197 38.0443 7.25197C37.2922 7.25197 36.7142 7.26231 36.1692 7.28299C35.4979 7.30987 35.0276 7.81649 34.7458 8.11839C34.145 8.76355 33.3763 9.11922 32.5807 9.11922C31.9094 9.11922 31.2857 8.86488 30.7802 8.38514C30.2477 7.88266 29.9514 7.19821 29.9431 6.45793C29.9369 5.71765 30.2207 5.02699 30.7429 4.51211C31.2629 4.00135 31.8928 3.73047 32.5641 3.73047C33.3514 3.73047 34.1346 4.10061 34.7728 4.77265C35.2141 5.23584 35.8999 5.54809 36.5215 5.5667C37.3275 5.58944 38.121 5.59358 38.7239 5.59358C39.0451 5.59358 39.3662 5.59358 39.6894 5.59151C40.0085 5.59151 40.3276 5.58944 40.6488 5.58944C40.9699 5.58944 41.289 5.58944 41.6101 5.59358C42.5715 5.60185 42.8077 5.83345 42.8077 6.7681C42.8098 7.9633 42.8118 9.15851 42.816 10.3537C42.8263 14.113 42.8367 18.0026 42.7973 21.8219C42.6917 32.223 34.4868 41.3132 24.1168 42.5146L24.0112 42.527C22.8405 42.649 22.2521 43.2549 22.2625 44.326C22.2956 47.771 22.4966 51.4641 23.7211 55.1262C25.6128 60.7838 29.4769 64.4314 35.2079 65.9658C38.3365 66.8032 41.4091 67.2271 44.3451 67.2271C47.5151 67.2271 50.6334 66.7329 53.6128 65.7569C55.1419 65.2565 55.7863 64.2805 55.6412 62.6883C55.4402 60.4964 55.347 58.2425 55.2579 56.065L55.2455 55.7383C55.2082 54.8161 54.7565 54.2019 53.8635 53.8649C53.0368 53.5526 52.1997 53.2135 51.3896 52.8889C50.536 52.5456 49.6554 52.1899 48.7749 51.8591C48.6878 51.826 48.636 51.8012 48.605 51.7846C48.6008 51.7578 48.5987 51.7164 48.5987 51.6564C48.6153 49.5472 48.6112 47.4071 48.6091 45.3351C48.605 42.9075 48.6008 40.3992 48.6298 37.9344C48.7272 29.0882 55.8546 21.3132 64.5153 20.5998C65.0416 20.5564 65.5741 20.5336 66.0962 20.5336C74.8832 20.5336 82.2904 26.7578 83.7096 35.333C83.8547 36.2056 83.9313 37.1527 83.9355 38.1473C83.9479 40.2276 83.9479 42.343 83.9458 44.3901C83.9458 46.7412 83.9458 49.1709 83.9624 51.5634C83.9624 51.6854 83.9562 51.7557 83.95 51.7929C83.923 51.8074 83.8733 51.8322 83.7925 51.8611C82.8539 52.2023 81.9195 52.5787 81.0182 52.9447C80.2868 53.2404 79.5326 53.5464 78.7888 53.8256C77.8295 54.1854 77.3592 54.8264 77.3094 55.8417C76.9676 62.8103 76.5926 69.8967 76.23 76.7474C76.23 76.7474 76.058 79.9815 76.058 79.998H56.5259V80.0001ZM66.2909 31.5448C63.6513 31.5448 61.5524 33.6023 61.5131 36.2284C61.4944 37.496 61.973 38.6953 62.8598 39.6052C63.7508 40.5191 64.9483 41.0278 66.2309 41.0423H66.2826C68.8871 41.0423 71.0315 38.931 71.0584 36.338C71.0729 35.0642 70.5923 33.8649 69.7055 32.9654C68.8145 32.0597 67.617 31.5551 66.3303 31.5468L66.2909 31.5448Z" fill="#003974"/>
<path d="M66.2795 16.5902C64.0832 16.5902 62.001 15.7217 60.418 14.1439C58.8351 12.5662 57.9648 10.4921 57.9648 8.30232C57.9648 3.80273 61.7751 0 66.2836 0C70.7901 0 74.6003 3.80066 74.6066 8.30025C74.6086 10.4901 73.7384 12.5641 72.1555 14.1419C70.5725 15.7196 68.4882 16.5902 66.2857 16.5922H66.2795V16.5902ZM66.2691 1.6584C62.6515 1.66873 59.6763 4.62572 59.639 8.24855C59.6203 10.0248 60.2958 11.6935 61.541 12.9487C62.7966 14.2142 64.4811 14.9111 66.2836 14.9111C69.9862 14.9028 72.9014 12.0182 72.9387 8.34781C72.9552 6.58189 72.2694 4.90902 71.0076 3.63524C69.7417 2.35939 68.0655 1.65633 66.2898 1.65633H66.2878H66.2691V1.6584Z" fill="#003974"/>
</g>
<defs>
<clipPath id="clip0">
<rect width="83.9669" height="80" fill="white"/>
</clipPath>
</defs>
</svg>
