<svg xmlns="http://www.w3.org/2000/svg" width="34" height="34" fill="none" viewBox="0 0 34 34"><g clip-path="url(#clip0_21329_10963)"><path fill="#F15A24" d="M16.56 9.124c-1.355.744-5.75 3.06-8.591 4.046a1.287 1.287 0 0 0-.848 1.227v4.467s.544 9.673 9.446 13.524c.29.127.625.12.916 0 1.838-.763 8.864-4.391 9.198-13.15l.373-4.835c0-.566-.358-1.068-.878-1.233-1.53-.483-5.58-2.184-8.446-3.995a1.128 1.128 0 0 0-1.163-.05h-.007Z" style="fill:#f15a24;fill:color(display-p3 .9451 .3529 .1412);fill-opacity:1"/><path fill="#000" d="M17.11 32.668c-.337 0-.668-.067-.98-.202-9.356-4.136-9.172-13.387-9.172-13.48V14.73c0-.938.594-1.777 1.488-2.083 2.757-.962 5.919-2.543 7.555-3.4.68-.356 1.495-.325 2.18.073 2.825 1.666 5.968 2.77 7.586 3.278a2.205 2.205 0 0 1 1.538 2.095l.012 4.246c-.343 8.688-6.525 12.333-9.166 13.503-.337.148-.692.221-1.047.221l.006.006Zm-.821-22.877c-1.655.863-4.847 2.456-7.64 3.43A1.602 1.602 0 0 0 7.57 14.73v4.27c0 .098-.165 8.94 8.81 12.91a1.89 1.89 0 0 0 1.526-.019c2.537-1.121 8.468-4.62 8.798-12.952l-.012-4.234a1.58 1.58 0 0 0-1.109-1.513c-1.648-.52-4.84-1.642-7.714-3.34-.502-.293-1.09-.318-1.586-.06h.006Z" style="fill:#000;fill-opacity:1"/><path fill="#fff" d="M16.503 10.243c-1.342.717-4.736 2.47-7.548 3.42-.502.17-.84.643-.84 1.182v4.307s-.269 8.608 8.541 12.321c.288.123.62.117.907 0 1.82-.735 8.24-3.927 8.572-12.37l-.013-4.295c0-.545-.355-1.03-.87-1.189-1.513-.465-4.754-1.58-7.59-3.326a1.142 1.142 0 0 0-1.153-.05h-.006Z" style="fill:#fff;fill-opacity:1"/><path fill="#F15A24" d="M20.849 19.848H18.13v-2.719h-1.98v2.718h-2.718v1.98h2.718v2.719h1.98v-2.719h2.719v-1.98Z" style="fill:#f15a24;fill:color(display-p3 .9451 .3529 .1412);fill-opacity:1"/><path fill="#000" d="M18.13 24.802h-1.98a.254.254 0 0 1-.256-.256v-2.462h-2.462a.254.254 0 0 1-.257-.257v-1.98c0-.143.113-.256.257-.256h2.462V17.13c0-.143.113-.256.256-.256h1.98c.144 0 .257.113.257.256v2.462h2.461c.144 0 .257.113.257.257v1.98a.254.254 0 0 1-.257.256h-2.461v2.462a.254.254 0 0 1-.257.256Zm-1.723-.513h1.467v-2.462c0-.143.113-.256.256-.256h2.462v-1.467H18.13a.254.254 0 0 1-.256-.256v-2.462h-1.467v2.462a.254.254 0 0 1-.257.256h-2.462v1.467h2.462c.144 0 .257.113.257.256v2.462Z" style="fill:#000;fill-opacity:1"/></g><path fill="#F15A24" d="m7.281 33.827.162-.58s.029-.052.051-.07L8 32.851a.122.122 0 0 0-.033-.221l-.58-.163s-.052-.029-.07-.051l-.327-.507a.122.122 0 0 0-.22.033l-.162.58s-.029.052-.05.07l-.512.33a.122.122 0 0 0 .033.22l.615.182s.052.029.07.051l.302.483c.053.091.195.074.22-.033l-.005.002ZM4 32.72l.404-1.445a.312.312 0 0 1 .133-.176l1.272-.812a.31.31 0 0 0-.087-.557l-1.452-.412a.314.314 0 0 1-.175-.135l-.816-1.278a.307.307 0 0 0-.555.085l-.406 1.455a.312.312 0 0 1-.133.175l-1.278.816a.31.31 0 0 0 .078.554l1.536.458a.314.314 0 0 1 .176.135l.748 1.208a.308.308 0 0 0 .559-.08L4 32.72Z" style="fill:#f15a24;fill:color(display-p3 .9451 .3529 .1412);fill-opacity:1"/><rect width="24" height="12" x="5" fill="#923411" fill-opacity=".9" rx="2" style="fill:#923411;fill:color(display-p3 .5725 .2039 .0667);fill-opacity:.9"/><path fill="#fff" d="M13.372 3.182V9H12.31L9.778 5.338h-.042V9h-1.23V3.182h1.08l2.51 3.659h.052V3.18h1.224Zm2.982 5.903c-.448 0-.835-.09-1.159-.273a1.867 1.867 0 0 1-.744-.778c-.174-.337-.261-.736-.261-1.196 0-.449.087-.843.261-1.182.174-.339.42-.603.736-.792.318-.19.691-.284 1.12-.284.287 0 .555.046.803.139.25.09.468.228.654.412.187.183.333.414.437.693.104.276.156.6.156.971v.333h-3.684v-.75h2.545a.928.928 0 0 0-.114-.463.814.814 0 0 0-.315-.316.9.9 0 0 0-.463-.116.932.932 0 0 0-.489.128.896.896 0 0 0-.33.338.955.955 0 0 0-.121.469v.713c0 .216.04.402.119.56a.873.873 0 0 0 .344.363c.147.085.323.128.525.128.135 0 .258-.02.37-.057a.74.74 0 0 0 .469-.449l1.119.074a1.529 1.529 0 0 1-.35.705c-.174.198-.4.354-.676.465a2.55 2.55 0 0 1-.952.165ZM19.977 9l-1.188-4.364h1.224l.677 2.932h.04l.704-2.932h1.202l.716 2.915h.037l.664-2.915h1.222L24.09 9H22.81l-.75-2.744h-.054L21.255 9h-1.278Z" style="fill:#fff;fill-opacity:1"/><defs><clipPath id="clip0_21329_10963"><path fill="#fff" d="M0 0h20.366v23.668H0z" style="fill:#fff;fill-opacity:1" transform="translate(6.957 9)"/></clipPath></defs></svg>